# K11_Rifle_V2
# Original YTC V2 asset. 1 unit = 1 meter. Y-up, +Z-forward.
mtllib ../Materials/ytc_design_assets_v2.mtl
s off
o K11_Core
g K11_Core
usemtl K1_Gunmetal
# rig_joint Hand_R
v -0.080000 -0.085000 0.070000
v 0.080000 -0.085000 0.070000
v 0.080000 0.085000 0.070000
v -0.080000 0.085000 0.070000
v -0.080000 -0.085000 0.610000
v 0.080000 -0.085000 0.610000
v 0.080000 0.085000 0.610000
v -0.080000 0.085000 0.610000
vn 0.000000 0.000000 -1.000000
vn 0.000000 0.000000 -1.000000
vn 0.000000 0.000000 1.000000
vn 0.000000 0.000000 1.000000
vn 0.000000 -1.000000 0.000000
vn 0.000000 -1.000000 0.000000
vn 0.000000 1.000000 0.000000
vn 0.000000 1.000000 0.000000
vn -1.000000 0.000000 0.000000
vn -1.000000 0.000000 0.000000
vn 1.000000 0.000000 0.000000
vn 1.000000 0.000000 0.000000
f 1//1 3//1 2//1
f 1//2 4//2 3//2
f 5//3 6//3 7//3
f 5//4 7//4 8//4
f 1//5 2//5 6//5
f 1//6 6//6 5//6
f 4//7 8//7 7//7
f 4//8 7//8 3//8
f 1//9 5//9 8//9
f 1//10 8//10 4//10
f 2//11 3//11 7//11
f 2//12 7//12 6//12
o K11_UpperShell
g K11_UpperShell
usemtl K1_WarmWhite
# rig_joint Hand_R
v -0.062000 0.350000 0.270000
v 0.062000 0.350000 0.270000
v 0.100000 0.234500 0.270000
v 0.100000 -0.084500 0.270000
v 0.062000 -0.200000 0.270000
v -0.062000 -0.200000 0.270000
v -0.100000 -0.084500 0.270000
v -0.100000 0.234500 0.270000
v -0.046500 0.315000 0.430000
v 0.046500 0.315000 0.430000
v 0.075000 0.214200 0.430000
v 0.075000 -0.064200 0.430000
v 0.046500 -0.165000 0.430000
v -0.046500 -0.165000 0.430000
v -0.075000 -0.064200 0.430000
v -0.075000 0.214200 0.430000
vn 0.000000 0.000000 1.000000
vn 0.000000 0.000000 -1.000000
vn 0.000000 0.000000 1.000000
vn -0.000000 -0.000000 -1.000000
vn -0.000000 0.000000 1.000000
vn 0.000000 -0.000000 -1.000000
vn 0.000000 0.000000 1.000000
vn 0.000000 -0.000000 -1.000000
vn 0.000000 0.000000 1.000000
vn -0.000000 -0.000000 -1.000000
vn -0.000000 0.000000 1.000000
vn 0.000000 -0.000000 -1.000000
vn 0.000000 -0.976900 -0.213697
vn 0.000000 -0.976900 -0.213697
vn -0.933542 -0.307140 -0.184834
vn -0.951245 -0.268953 -0.150985
vn -0.988012 -0.000000 -0.154377
vn -0.988012 -0.000000 -0.154377
vn -0.937923 0.308581 -0.158363
vn -0.946242 0.267539 -0.181794
vn 0.000000 0.976900 -0.213697
vn 0.000000 0.976900 -0.213697
vn 0.933542 0.307140 -0.184834
vn 0.951245 0.268953 -0.150985
vn 0.988012 -0.000000 -0.154377
vn 0.988012 -0.000000 -0.154377
vn 0.937923 -0.308581 -0.158363
vn 0.946242 -0.267539 -0.181794
f 9//13 11//13 10//13
f 17//14 18//14 19//14
f 9//15 12//15 11//15
f 17//16 19//16 20//16
f 9//17 13//17 12//17
f 17//18 20//18 21//18
f 9//19 14//19 13//19
f 17//20 21//20 22//20
f 9//21 15//21 14//21
f 17//22 22//22 23//22
f 9//23 16//23 15//23
f 17//24 23//24 24//24
f 9//25 10//25 18//25
f 9//26 18//26 17//26
f 10//27 11//27 19//27
f 10//28 19//28 18//28
f 11//29 12//29 20//29
f 11//30 20//30 19//30
f 12//31 13//31 21//31
f 12//32 21//32 20//32
f 13//33 14//33 22//33
f 13//34 22//34 21//34
f 14//35 15//35 23//35
f 14//36 23//36 22//36
f 15//37 16//37 24//37
f 15//38 24//38 23//38
f 16//39 9//39 17//39
f 16//40 17//40 24//40
o K11_OrangeSpine
g K11_OrangeSpine
usemtl YTC_Orange
# rig_joint Hand_R
v -0.027500 0.152500 0.125000
v 0.027500 0.152500 0.125000
v 0.027500 0.187500 0.125000
v -0.027500 0.187500 0.125000
v -0.027500 0.152500 0.595000
v 0.027500 0.152500 0.595000
v 0.027500 0.187500 0.595000
v -0.027500 0.187500 0.595000
vn 0.000000 0.000000 -1.000000
vn 0.000000 0.000000 -1.000000
vn 0.000000 0.000000 1.000000
vn 0.000000 0.000000 1.000000
vn 0.000000 -1.000000 0.000000
vn 0.000000 -1.000000 0.000000
vn 0.000000 1.000000 0.000000
vn 0.000000 1.000000 0.000000
vn -1.000000 0.000000 0.000000
vn -1.000000 0.000000 0.000000
vn 1.000000 0.000000 0.000000
vn 1.000000 0.000000 0.000000
f 25//41 27//41 26//41
f 25//42 28//42 27//42
f 29//43 30//43 31//43
f 29//44 31//44 32//44
f 25//45 26//45 30//45
f 25//46 30//46 29//46
f 28//47 32//47 31//47
f 28//48 31//48 27//48
f 25//49 29//49 32//49
f 25//50 32//50 28//50
f 26//51 27//51 31//51
f 26//52 31//52 30//52
o K11_Stock
g K11_Stock
usemtl K1_CeramicWhite
# rig_joint Hand_R
v -0.070000 -0.138449 -0.169835
v 0.070000 -0.138449 -0.169835
v 0.070000 0.058320 -0.205641
v -0.070000 0.058320 -0.205641
v -0.070000 -0.088320 0.105641
v 0.070000 -0.088320 0.105641
v 0.070000 0.108449 0.069835
v -0.070000 0.108449 0.069835
vn 0.000000 -0.179030 -0.983844
vn 0.000000 -0.179030 -0.983844
vn 0.000000 0.179030 0.983844
vn 0.000000 0.179030 0.983844
vn 0.000000 -0.983844 0.179030
vn 0.000000 -0.983844 0.179030
vn 0.000000 0.983844 -0.179030
vn 0.000000 0.983844 -0.179030
vn -1.000000 0.000000 0.000000
vn -1.000000 0.000000 0.000000
vn 1.000000 0.000000 0.000000
vn 1.000000 0.000000 0.000000
f 33//53 35//53 34//53
f 33//54 36//54 35//54
f 37//55 38//55 39//55
f 37//56 39//56 40//56
f 33//57 34//57 38//57
f 33//58 38//58 37//58
f 36//59 40//59 39//59
f 36//60 39//60 35//60
f 33//61 37//61 40//61
f 33//62 40//62 36//62
f 34//63 35//63 39//63
f 34//64 39//64 38//64
o K11_Grip
g K11_Grip
usemtl K1_Undersuit
# rig_joint Hand_R
v -0.052500 -0.329494 0.157194
v 0.052500 -0.329494 0.157194
v 0.052500 -0.065522 0.063817
v -0.052500 -0.065522 0.063817
v -0.052500 -0.294478 0.256183
v 0.052500 -0.294478 0.256183
v 0.052500 -0.030506 0.162806
v -0.052500 -0.030506 0.162806
vn 0.000000 -0.333487 -0.942755
vn 0.000000 -0.333487 -0.942755
vn 0.000000 0.333487 0.942755
vn 0.000000 0.333487 0.942755
vn 0.000000 -0.942755 0.333487
vn 0.000000 -0.942755 0.333487
vn 0.000000 0.942755 -0.333487
vn 0.000000 0.942755 -0.333487
vn -1.000000 0.000000 0.000000
vn -1.000000 0.000000 0.000000
vn 1.000000 0.000000 0.000000
vn 1.000000 0.000000 0.000000
f 41//65 43//65 42//65
f 41//66 44//66 43//66
f 45//67 46//67 47//67
f 45//68 47//68 48//68
f 41//69 42//69 46//69
f 41//70 46//70 45//70
f 44//71 48//71 47//71
f 44//72 47//72 43//72
f 41//73 45//73 48//73
f 41//74 48//74 44//74
f 42//75 43//75 47//75
f 42//76 47//76 46//76
o K11_Magazine
g K11_Magazine
usemtl K1_Gunmetal
# rig_joint Hand_R
v -0.055000 -0.335790 0.329301
v 0.055000 -0.335790 0.329301
v 0.055000 -0.057189 0.301348
v -0.055000 -0.057189 0.301348
v -0.055000 -0.322811 0.458652
v 0.055000 -0.322811 0.458652
v 0.055000 -0.044210 0.430699
v -0.055000 -0.044210 0.430699
vn 0.000000 -0.099833 -0.995004
vn 0.000000 -0.099833 -0.995004
vn 0.000000 0.099833 0.995004
vn 0.000000 0.099833 0.995004
vn 0.000000 -0.995004 0.099833
vn 0.000000 -0.995004 0.099833
vn 0.000000 0.995004 -0.099833
vn 0.000000 0.995004 -0.099833
vn -1.000000 0.000000 0.000000
vn -1.000000 0.000000 0.000000
vn 1.000000 0.000000 0.000000
vn 1.000000 0.000000 0.000000
f 49//77 51//77 50//77
f 49//78 52//78 51//78
f 53//79 54//79 55//79
f 53//80 55//80 56//80
f 49//81 50//81 54//81
f 49//82 54//82 53//82
f 52//83 56//83 55//83
f 52//84 55//84 51//84
f 49//85 53//85 56//85
f 49//86 56//86 52//86
f 50//87 51//87 55//87
f 50//88 55//88 54//88
o K11_BarrelRail
g K11_BarrelRail
usemtl K1_Gunmetal
# rig_joint Hand_R
v -0.039000 -0.014000 0.450000
v 0.039000 -0.014000 0.450000
v 0.039000 0.054000 0.450000
v -0.039000 0.054000 0.450000
v -0.039000 -0.014000 0.890000
v 0.039000 -0.014000 0.890000
v 0.039000 0.054000 0.890000
v -0.039000 0.054000 0.890000
vn 0.000000 0.000000 -1.000000
vn 0.000000 0.000000 -1.000000
vn 0.000000 0.000000 1.000000
vn 0.000000 0.000000 1.000000
vn 0.000000 -1.000000 0.000000
vn 0.000000 -1.000000 0.000000
vn 0.000000 1.000000 0.000000
vn 0.000000 1.000000 0.000000
vn -1.000000 0.000000 0.000000
vn -1.000000 0.000000 0.000000
vn 1.000000 0.000000 0.000000
vn 1.000000 0.000000 0.000000
f 57//89 59//89 58//89
f 57//90 60//90 59//90
f 61//91 62//91 63//91
f 61//92 63//92 64//92
f 57//93 58//93 62//93
f 57//94 62//94 61//94
f 60//95 64//95 63//95
f 60//96 63//96 59//96
f 57//97 61//97 64//97
f 57//98 64//98 60//98
f 58//99 59//99 63//99
f 58//100 63//100 62//100
o K11_Barrel
g K11_Barrel
usemtl K1_Gunmetal
# rig_joint Hand_R
v 0.000000 0.020000 0.570000
v 0.000000 0.020000 0.840000
v -0.052000 0.020000 0.570000
v -0.042000 0.020000 0.840000
v -0.045033 -0.006000 0.570000
v -0.036373 -0.001000 0.840000
v -0.026000 -0.025033 0.570000
v -0.021000 -0.016373 0.840000
v -0.000000 -0.032000 0.570000
v -0.000000 -0.022000 0.840000
v 0.026000 -0.025033 0.570000
v 0.021000 -0.016373 0.840000
v 0.045033 -0.006000 0.570000
v 0.036373 -0.001000 0.840000
v 0.052000 0.020000 0.570000
v 0.042000 0.020000 0.840000
v 0.045033 0.046000 0.570000
v 0.036373 0.041000 0.840000
v 0.026000 0.065033 0.570000
v 0.021000 0.056373 0.840000
v 0.000000 0.072000 0.570000
v 0.000000 0.062000 0.840000
v -0.026000 0.065033 0.570000
v -0.021000 0.056373 0.840000
v -0.045033 0.046000 0.570000
v -0.036373 0.041000 0.840000
vn -0.965308 -0.258654 0.035752
vn -0.965308 -0.258654 0.035752
vn 0.000000 0.000000 -1.000000
vn 0.000000 0.000000 1.000000
vn -0.706655 -0.706655 0.035752
vn -0.706655 -0.706655 0.035752
vn 0.000000 0.000000 -1.000000
vn 0.000000 0.000000 1.000000
vn -0.258654 -0.965308 0.035752
vn -0.258654 -0.965308 0.035752
vn 0.000000 0.000000 -1.000000
vn 0.000000 0.000000 1.000000
vn 0.258654 -0.965308 0.035752
vn 0.258654 -0.965308 0.035752
vn 0.000000 0.000000 -1.000000
vn 0.000000 0.000000 1.000000
vn 0.706655 -0.706655 0.035752
vn 0.706655 -0.706655 0.035752
vn 0.000000 0.000000 -1.000000
vn 0.000000 0.000000 1.000000
vn 0.965308 -0.258654 0.035752
vn 0.965308 -0.258654 0.035752
vn 0.000000 0.000000 -1.000000
vn 0.000000 0.000000 1.000000
vn 0.965308 0.258654 0.035752
vn 0.965308 0.258654 0.035752
vn 0.000000 0.000000 -1.000000
vn 0.000000 0.000000 1.000000
vn 0.706655 0.706655 0.035752
vn 0.706655 0.706655 0.035752
vn 0.000000 0.000000 -1.000000
vn 0.000000 0.000000 1.000000
vn 0.258654 0.965308 0.035752
vn 0.258654 0.965308 0.035752
vn 0.000000 0.000000 -1.000000
vn 0.000000 0.000000 1.000000
vn -0.258654 0.965308 0.035752
vn -0.258654 0.965308 0.035752
vn 0.000000 0.000000 -1.000000
vn 0.000000 0.000000 1.000000
vn -0.706655 0.706655 0.035752
vn -0.706655 0.706655 0.035752
vn 0.000000 0.000000 -1.000000
vn 0.000000 0.000000 1.000000
vn -0.965308 0.258654 0.035752
vn -0.965308 0.258654 0.035752
vn 0.000000 0.000000 -1.000000
vn 0.000000 0.000000 1.000000
f 67//101 69//101 70//101
f 67//102 70//102 68//102
f 65//103 69//103 67//103
f 66//104 68//104 70//104
f 69//105 71//105 72//105
f 69//106 72//106 70//106
f 65//107 71//107 69//107
f 66//108 70//108 72//108
f 71//109 73//109 74//109
f 71//110 74//110 72//110
f 65//111 73//111 71//111
f 66//112 72//112 74//112
f 73//113 75//113 76//113
f 73//114 76//114 74//114
f 65//115 75//115 73//115
f 66//116 74//116 76//116
f 75//117 77//117 78//117
f 75//118 78//118 76//118
f 65//119 77//119 75//119
f 66//120 76//120 78//120
f 77//121 79//121 80//121
f 77//122 80//122 78//122
f 65//123 79//123 77//123
f 66//124 78//124 80//124
f 79//125 81//125 82//125
f 79//126 82//126 80//126
f 65//127 81//127 79//127
f 66//128 80//128 82//128
f 81//129 83//129 84//129
f 81//130 84//130 82//130
f 65//131 83//131 81//131
f 66//132 82//132 84//132
f 83//133 85//133 86//133
f 83//134 86//134 84//134
f 65//135 85//135 83//135
f 66//136 84//136 86//136
f 85//137 87//137 88//137
f 85//138 88//138 86//138
f 65//139 87//139 85//139
f 66//140 86//140 88//140
f 87//141 89//141 90//141
f 87//142 90//142 88//142
f 65//143 89//143 87//143
f 66//144 88//144 90//144
f 89//145 67//145 68//145
f 89//146 68//146 90//146
f 65//147 67//147 89//147
f 66//148 90//148 68//148
o K11_Muzzle
g K11_Muzzle
usemtl YTC_Orange
# rig_joint Hand_R
v 0.000000 0.020000 0.820000
v 0.000000 0.020000 0.900000
v -0.066000 0.020000 0.820000
v -0.052000 0.020000 0.900000
v -0.057158 -0.013000 0.820000
v -0.045033 -0.006000 0.900000
v -0.033000 -0.037158 0.820000
v -0.026000 -0.025033 0.900000
v -0.000000 -0.046000 0.820000
v -0.000000 -0.032000 0.900000
v 0.033000 -0.037158 0.820000
v 0.026000 -0.025033 0.900000
v 0.057158 -0.013000 0.820000
v 0.045033 -0.006000 0.900000
v 0.066000 0.020000 0.820000
v 0.052000 0.020000 0.900000
v 0.057158 0.053000 0.820000
v 0.045033 0.046000 0.900000
v 0.033000 0.077158 0.820000
v 0.026000 0.065033 0.900000
v 0.000000 0.086000 0.820000
v 0.000000 0.072000 0.900000
v -0.033000 0.077158 0.820000
v -0.026000 0.065033 0.900000
v -0.057158 0.053000 0.820000
v -0.045033 0.046000 0.900000
vn -0.952415 -0.255199 0.166673
vn -0.952415 -0.255199 0.166673
vn 0.000000 0.000000 -1.000000
vn 0.000000 0.000000 1.000000
vn -0.697216 -0.697216 0.166673
vn -0.697216 -0.697216 0.166673
vn 0.000000 0.000000 -1.000000
vn 0.000000 0.000000 1.000000
vn -0.255199 -0.952415 0.166673
vn -0.255199 -0.952415 0.166673
vn 0.000000 0.000000 -1.000000
vn 0.000000 0.000000 1.000000
vn 0.255199 -0.952415 0.166673
vn 0.255199 -0.952415 0.166673
vn 0.000000 0.000000 -1.000000
vn 0.000000 0.000000 1.000000
vn 0.697216 -0.697216 0.166673
vn 0.697216 -0.697216 0.166673
vn 0.000000 0.000000 -1.000000
vn 0.000000 0.000000 1.000000
vn 0.952415 -0.255199 0.166673
vn 0.952415 -0.255199 0.166673
vn 0.000000 0.000000 -1.000000
vn 0.000000 0.000000 1.000000
vn 0.952415 0.255199 0.166673
vn 0.952415 0.255199 0.166673
vn 0.000000 0.000000 -1.000000
vn 0.000000 0.000000 1.000000
vn 0.697216 0.697216 0.166673
vn 0.697216 0.697216 0.166673
vn 0.000000 0.000000 -1.000000
vn 0.000000 0.000000 1.000000
vn 0.255199 0.952415 0.166673
vn 0.255199 0.952415 0.166673
vn 0.000000 0.000000 -1.000000
vn 0.000000 0.000000 1.000000
vn -0.255199 0.952415 0.166673
vn -0.255199 0.952415 0.166673
vn 0.000000 0.000000 -1.000000
vn 0.000000 0.000000 1.000000
vn -0.697216 0.697216 0.166673
vn -0.697216 0.697216 0.166673
vn 0.000000 0.000000 -1.000000
vn 0.000000 0.000000 1.000000
vn -0.952415 0.255199 0.166673
vn -0.952415 0.255199 0.166673
vn 0.000000 0.000000 -1.000000
vn 0.000000 0.000000 1.000000
f 93//149 95//149 96//149
f 93//150 96//150 94//150
f 91//151 95//151 93//151
f 92//152 94//152 96//152
f 95//153 97//153 98//153
f 95//154 98//154 96//154
f 91//155 97//155 95//155
f 92//156 96//156 98//156
f 97//157 99//157 100//157
f 97//158 100//158 98//158
f 91//159 99//159 97//159
f 92//160 98//160 100//160
f 99//161 101//161 102//161
f 99//162 102//162 100//162
f 91//163 101//163 99//163
f 92//164 100//164 102//164
f 101//165 103//165 104//165
f 101//166 104//166 102//166
f 91//167 103//167 101//167
f 92//168 102//168 104//168
f 103//169 105//169 106//169
f 103//170 106//170 104//170
f 91//171 105//171 103//171
f 92//172 104//172 106//172
f 105//173 107//173 108//173
f 105//174 108//174 106//174
f 91//175 107//175 105//175
f 92//176 106//176 108//176
f 107//177 109//177 110//177
f 107//178 110//178 108//178
f 91//179 109//179 107//179
f 92//180 108//180 110//180
f 109//181 111//181 112//181
f 109//182 112//182 110//182
f 91//183 111//183 109//183
f 92//184 110//184 112//184
f 111//185 113//185 114//185
f 111//186 114//186 112//186
f 91//187 113//187 111//187
f 92//188 112//188 114//188
f 113//189 115//189 116//189
f 113//190 116//190 114//190
f 91//191 115//191 113//191
f 92//192 114//192 116//192
f 115//193 93//193 94//193
f 115//194 94//194 116//194
f 91//195 93//195 115//195
f 92//196 116//196 94//196
o K11_Sight
g K11_Sight
usemtl K1_VisorMint
# rig_joint Hand_R
v -0.045000 0.150000 0.410000
v 0.045000 0.150000 0.410000
v 0.045000 0.230000 0.410000
v -0.045000 0.230000 0.410000
v -0.045000 0.150000 0.550000
v 0.045000 0.150000 0.550000
v 0.045000 0.230000 0.550000
v -0.045000 0.230000 0.550000
vn 0.000000 0.000000 -1.000000
vn 0.000000 0.000000 -1.000000
vn 0.000000 0.000000 1.000000
vn 0.000000 0.000000 1.000000
vn 0.000000 -1.000000 0.000000
vn 0.000000 -1.000000 0.000000
vn 0.000000 1.000000 0.000000
vn 0.000000 1.000000 0.000000
vn -1.000000 0.000000 0.000000
vn -1.000000 0.000000 0.000000
vn 1.000000 0.000000 0.000000
vn 1.000000 0.000000 0.000000
f 117//197 119//197 118//197
f 117//198 120//198 119//198
f 121//199 122//199 123//199
f 121//200 123//200 124//200
f 117//201 118//201 122//201
f 117//202 122//202 121//202
f 120//203 124//203 123//203
f 120//204 123//204 119//204
f 117//205 121//205 124//205
f 117//206 124//206 120//206
f 118//207 119//207 123//207
f 118//208 123//208 122//208
