# Central_Industrial_Belt_Collision_V2
# Original YTC V2 asset. 1 unit = 1 meter. Y-up, +Z-forward.
mtllib ../Materials/ytc_design_assets_v2.mtl
s off
o COL_Walkable_0
g COL_Walkable_0
usemtl Field_Edge
# rig_joint K1_Root
v -18.000000 -0.360000 -2.600000
v -8.000000 -0.360000 -2.600000
v -8.000000 0.000000 -2.600000
v -18.000000 0.000000 -2.600000
v -18.000000 -0.360000 2.600000
v -8.000000 -0.360000 2.600000
v -8.000000 0.000000 2.600000
v -18.000000 0.000000 2.600000
vn 0.000000 0.000000 -1.000000
vn 0.000000 0.000000 -1.000000
vn 0.000000 0.000000 1.000000
vn 0.000000 0.000000 1.000000
vn 0.000000 -1.000000 0.000000
vn 0.000000 -1.000000 0.000000
vn 0.000000 1.000000 0.000000
vn 0.000000 1.000000 0.000000
vn -1.000000 0.000000 0.000000
vn -1.000000 0.000000 0.000000
vn 1.000000 0.000000 0.000000
vn 1.000000 0.000000 0.000000
f 1//1 3//1 2//1
f 1//2 4//2 3//2
f 5//3 6//3 7//3
f 5//4 7//4 8//4
f 1//5 2//5 6//5
f 1//6 6//6 5//6
f 4//7 8//7 7//7
f 4//8 7//8 3//8
f 1//9 5//9 8//9
f 1//10 8//10 4//10
f 2//11 3//11 7//11
f 2//12 7//12 6//12
o COL_Walkable_1
g COL_Walkable_1
usemtl Field_Edge
# rig_joint K1_Root
v -7.750000 -0.360000 -2.600000
v 0.750000 -0.360000 -2.600000
v 0.750000 0.000000 -2.600000
v -7.750000 0.000000 -2.600000
v -7.750000 -0.360000 2.600000
v 0.750000 -0.360000 2.600000
v 0.750000 0.000000 2.600000
v -7.750000 0.000000 2.600000
vn 0.000000 0.000000 -1.000000
vn 0.000000 0.000000 -1.000000
vn 0.000000 0.000000 1.000000
vn 0.000000 0.000000 1.000000
vn 0.000000 -1.000000 0.000000
vn 0.000000 -1.000000 0.000000
vn 0.000000 1.000000 0.000000
vn 0.000000 1.000000 0.000000
vn -1.000000 0.000000 0.000000
vn -1.000000 0.000000 0.000000
vn 1.000000 0.000000 0.000000
vn 1.000000 0.000000 0.000000
f 9//13 11//13 10//13
f 9//14 12//14 11//14
f 13//15 14//15 15//15
f 13//16 15//16 16//16
f 9//17 10//17 14//17
f 9//18 14//18 13//18
f 12//19 16//19 15//19
f 12//20 15//20 11//20
f 9//21 13//21 16//21
f 9//22 16//22 12//22
f 10//23 11//23 15//23
f 10//24 15//24 14//24
o COL_Walkable_2
g COL_Walkable_2
usemtl Field_Edge
# rig_joint K1_Root
v 1.250000 -0.360000 -2.600000
v 8.750000 -0.360000 -2.600000
v 8.750000 0.000000 -2.600000
v 1.250000 0.000000 -2.600000
v 1.250000 -0.360000 2.600000
v 8.750000 -0.360000 2.600000
v 8.750000 0.000000 2.600000
v 1.250000 0.000000 2.600000
vn 0.000000 0.000000 -1.000000
vn 0.000000 0.000000 -1.000000
vn 0.000000 0.000000 1.000000
vn 0.000000 0.000000 1.000000
vn 0.000000 -1.000000 0.000000
vn 0.000000 -1.000000 0.000000
vn 0.000000 1.000000 0.000000
vn 0.000000 1.000000 0.000000
vn -1.000000 0.000000 0.000000
vn -1.000000 0.000000 0.000000
vn 1.000000 0.000000 0.000000
vn 1.000000 0.000000 0.000000
f 17//25 19//25 18//25
f 17//26 20//26 19//26
f 21//27 22//27 23//27
f 21//28 23//28 24//28
f 17//29 18//29 22//29
f 17//30 22//30 21//30
f 20//31 24//31 23//31
f 20//32 23//32 19//32
f 17//33 21//33 24//33
f 17//34 24//34 20//34
f 18//35 19//35 23//35
f 18//36 23//36 22//36
o COL_Walkable_3
g COL_Walkable_3
usemtl Field_Edge
# rig_joint K1_Root
v 9.000000 -0.360000 -2.600000
v 19.000000 -0.360000 -2.600000
v 19.000000 0.000000 -2.600000
v 9.000000 0.000000 -2.600000
v 9.000000 -0.360000 2.600000
v 19.000000 -0.360000 2.600000
v 19.000000 0.000000 2.600000
v 9.000000 0.000000 2.600000
vn 0.000000 0.000000 -1.000000
vn 0.000000 0.000000 -1.000000
vn 0.000000 0.000000 1.000000
vn 0.000000 0.000000 1.000000
vn 0.000000 -1.000000 0.000000
vn 0.000000 -1.000000 0.000000
vn 0.000000 1.000000 0.000000
vn 0.000000 1.000000 0.000000
vn -1.000000 0.000000 0.000000
vn -1.000000 0.000000 0.000000
vn 1.000000 0.000000 0.000000
vn 1.000000 0.000000 0.000000
f 25//37 27//37 26//37
f 25//38 28//38 27//38
f 29//39 30//39 31//39
f 29//40 31//40 32//40
f 25//41 26//41 30//41
f 25//42 30//42 29//42
f 28//43 32//43 31//43
f 28//44 31//44 27//44
f 25//45 29//45 32//45
f 25//46 32//46 28//46
f 26//47 27//47 31//47
f 26//48 31//48 30//48
o COL_Step_0
g COL_Step_0
usemtl Field_Edge
# rig_joint K1_Root
v -7.925000 0.000000 -1.700000
v -6.875000 0.000000 -1.700000
v -6.875000 0.220000 -1.700000
v -7.925000 0.220000 -1.700000
v -7.925000 0.000000 1.700000
v -6.875000 0.000000 1.700000
v -6.875000 0.220000 1.700000
v -7.925000 0.220000 1.700000
vn 0.000000 0.000000 -1.000000
vn 0.000000 0.000000 -1.000000
vn 0.000000 0.000000 1.000000
vn 0.000000 0.000000 1.000000
vn 0.000000 -1.000000 0.000000
vn 0.000000 -1.000000 0.000000
vn 0.000000 1.000000 0.000000
vn 0.000000 1.000000 0.000000
vn -1.000000 0.000000 0.000000
vn -1.000000 0.000000 0.000000
vn 1.000000 0.000000 0.000000
vn 1.000000 0.000000 0.000000
f 33//49 35//49 34//49
f 33//50 36//50 35//50
f 37//51 38//51 39//51
f 37//52 39//52 40//52
f 33//53 34//53 38//53
f 33//54 38//54 37//54
f 36//55 40//55 39//55
f 36//56 39//56 35//56
f 33//57 37//57 40//57
f 33//58 40//58 36//58
f 34//59 35//59 39//59
f 34//60 39//60 38//60
o COL_Step_1
g COL_Step_1
usemtl Field_Edge
# rig_joint K1_Root
v -6.825000 0.000000 -1.700000
v -5.775000 0.000000 -1.700000
v -5.775000 0.440000 -1.700000
v -6.825000 0.440000 -1.700000
v -6.825000 0.000000 1.700000
v -5.775000 0.000000 1.700000
v -5.775000 0.440000 1.700000
v -6.825000 0.440000 1.700000
vn 0.000000 0.000000 -1.000000
vn 0.000000 0.000000 -1.000000
vn 0.000000 0.000000 1.000000
vn 0.000000 0.000000 1.000000
vn 0.000000 -1.000000 0.000000
vn 0.000000 -1.000000 0.000000
vn 0.000000 1.000000 0.000000
vn 0.000000 1.000000 0.000000
vn -1.000000 0.000000 0.000000
vn -1.000000 0.000000 0.000000
vn 1.000000 0.000000 0.000000
vn 1.000000 0.000000 0.000000
f 41//61 43//61 42//61
f 41//62 44//62 43//62
f 45//63 46//63 47//63
f 45//64 47//64 48//64
f 41//65 42//65 46//65
f 41//66 46//66 45//66
f 44//67 48//67 47//67
f 44//68 47//68 43//68
f 41//69 45//69 48//69
f 41//70 48//70 44//70
f 42//71 43//71 47//71
f 42//72 47//72 46//72
o COL_Step_2
g COL_Step_2
usemtl Field_Edge
# rig_joint K1_Root
v -5.725000 0.000000 -1.700000
v -4.675000 0.000000 -1.700000
v -4.675000 0.660000 -1.700000
v -5.725000 0.660000 -1.700000
v -5.725000 0.000000 1.700000
v -4.675000 0.000000 1.700000
v -4.675000 0.660000 1.700000
v -5.725000 0.660000 1.700000
vn 0.000000 0.000000 -1.000000
vn 0.000000 0.000000 -1.000000
vn 0.000000 0.000000 1.000000
vn 0.000000 0.000000 1.000000
vn 0.000000 -1.000000 0.000000
vn 0.000000 -1.000000 0.000000
vn 0.000000 1.000000 0.000000
vn 0.000000 1.000000 0.000000
vn -1.000000 0.000000 0.000000
vn -1.000000 0.000000 0.000000
vn 1.000000 0.000000 0.000000
vn 1.000000 0.000000 0.000000
f 49//73 51//73 50//73
f 49//74 52//74 51//74
f 53//75 54//75 55//75
f 53//76 55//76 56//76
f 49//77 50//77 54//77
f 49//78 54//78 53//78
f 52//79 56//79 55//79
f 52//80 55//80 51//80
f 49//81 53//81 56//81
f 49//82 56//82 52//82
f 50//83 51//83 55//83
f 50//84 55//84 54//84
o COL_RaisedDeck
g COL_RaisedDeck
usemtl Field_Edge
# rig_joint K1_Root
v -4.800000 0.700000 -1.850000
v -0.800000 0.700000 -1.850000
v -0.800000 0.960000 -1.850000
v -4.800000 0.960000 -1.850000
v -4.800000 0.700000 1.850000
v -0.800000 0.700000 1.850000
v -0.800000 0.960000 1.850000
v -4.800000 0.960000 1.850000
vn 0.000000 0.000000 -1.000000
vn 0.000000 0.000000 -1.000000
vn 0.000000 0.000000 1.000000
vn 0.000000 0.000000 1.000000
vn 0.000000 -1.000000 0.000000
vn 0.000000 -1.000000 0.000000
vn 0.000000 1.000000 0.000000
vn 0.000000 1.000000 0.000000
vn -1.000000 0.000000 0.000000
vn -1.000000 0.000000 0.000000
vn 1.000000 0.000000 0.000000
vn 1.000000 0.000000 0.000000
f 57//85 59//85 58//85
f 57//86 60//86 59//86
f 61//87 62//87 63//87
f 61//88 63//88 64//88
f 57//89 58//89 62//89
f 57//90 62//90 61//90
f 60//91 64//91 63//91
f 60//92 63//92 59//92
f 57//93 61//93 64//93
f 57//94 64//94 60//94
f 58//95 59//95 63//95
f 58//96 63//96 62//96
o COL_Landing
g COL_Landing
usemtl Field_Edge
# rig_joint K1_Root
v 2.050000 0.000000 -1.950000
v 4.250000 0.000000 -1.950000
v 4.250000 0.560000 -1.950000
v 2.050000 0.560000 -1.950000
v 2.050000 0.000000 1.950000
v 4.250000 0.000000 1.950000
v 4.250000 0.560000 1.950000
v 2.050000 0.560000 1.950000
vn 0.000000 0.000000 -1.000000
vn 0.000000 0.000000 -1.000000
vn 0.000000 0.000000 1.000000
vn 0.000000 0.000000 1.000000
vn 0.000000 -1.000000 0.000000
vn 0.000000 -1.000000 0.000000
vn 0.000000 1.000000 0.000000
vn 0.000000 1.000000 0.000000
vn -1.000000 0.000000 0.000000
vn -1.000000 0.000000 0.000000
vn 1.000000 0.000000 0.000000
vn 1.000000 0.000000 0.000000
f 65//97 67//97 66//97
f 65//98 68//98 67//98
f 69//99 70//99 71//99
f 69//100 71//100 72//100
f 65//101 66//101 70//101
f 65//102 70//102 69//102
f 68//103 72//103 71//103
f 68//104 71//104 67//104
f 65//105 69//105 72//105
f 65//106 72//106 68//106
f 66//107 67//107 71//107
f 66//108 71//108 70//108
o COL_HighDeck
g COL_HighDeck
usemtl Field_Edge
# rig_joint K1_Root
v 4.300000 0.755000 -2.000000
v 9.900000 0.755000 -2.000000
v 9.900000 1.005000 -2.000000
v 4.300000 1.005000 -2.000000
v 4.300000 0.755000 2.000000
v 9.900000 0.755000 2.000000
v 9.900000 1.005000 2.000000
v 4.300000 1.005000 2.000000
vn 0.000000 0.000000 -1.000000
vn 0.000000 0.000000 -1.000000
vn 0.000000 0.000000 1.000000
vn 0.000000 0.000000 1.000000
vn 0.000000 -1.000000 0.000000
vn 0.000000 -1.000000 0.000000
vn 0.000000 1.000000 0.000000
vn 0.000000 1.000000 0.000000
vn -1.000000 0.000000 0.000000
vn -1.000000 0.000000 0.000000
vn 1.000000 0.000000 0.000000
vn 1.000000 0.000000 0.000000
f 73//109 75//109 74//109
f 73//110 76//110 75//110
f 77//111 78//111 79//111
f 77//112 79//112 80//112
f 73//113 74//113 78//113
f 73//114 78//114 77//114
f 76//115 80//115 79//115
f 76//116 79//116 75//116
f 73//117 77//117 80//117
f 73//118 80//118 76//118
f 74//119 75//119 79//119
f 74//120 79//120 78//120
