# Central_Industrial_Belt_Collision
# Original YTC prototype asset. Unity units: 1 OBJ unit = 1 meter. Axis: Y up, Z forward.
mtllib ../Materials/ytc_design_assets.mtl
s off
o Floor_Start
g Floor_Start
usemtl Field_EdgeDark
v -18.000000 -0.440000 -3.000000
v -7.000000 -0.440000 -3.000000
v -7.000000 0.000000 -3.000000
v -18.000000 0.000000 -3.000000
v -18.000000 -0.440000 3.000000
v -7.000000 -0.440000 3.000000
v -7.000000 0.000000 3.000000
v -18.000000 0.000000 3.000000
vn 0.000000 0.000000 -1.000000
vn 0.000000 0.000000 -1.000000
vn 0.000000 0.000000 1.000000
vn 0.000000 0.000000 1.000000
vn 0.000000 -1.000000 0.000000
vn 0.000000 -1.000000 0.000000
vn 0.000000 1.000000 0.000000
vn 0.000000 1.000000 0.000000
vn -1.000000 0.000000 0.000000
vn -1.000000 0.000000 0.000000
vn 1.000000 0.000000 0.000000
vn 1.000000 0.000000 0.000000
f 1//1 3//1 2//1
f 1//2 4//2 3//2
f 5//3 6//3 7//3
f 5//4 7//4 8//4
f 1//5 2//5 6//5
f 1//6 6//6 5//6
f 4//7 8//7 7//7
f 4//8 7//8 3//8
f 1//9 5//9 8//9
f 1//10 8//10 4//10
f 2//11 3//11 7//11
f 2//12 7//12 6//12
o Floor_Training
g Floor_Training
usemtl Field_EdgeDark
v -7.000000 -0.440000 -3.000000
v 5.000000 -0.440000 -3.000000
v 5.000000 0.000000 -3.000000
v -7.000000 0.000000 -3.000000
v -7.000000 -0.440000 3.000000
v 5.000000 -0.440000 3.000000
v 5.000000 0.000000 3.000000
v -7.000000 0.000000 3.000000
vn 0.000000 0.000000 -1.000000
vn 0.000000 0.000000 -1.000000
vn 0.000000 0.000000 1.000000
vn 0.000000 0.000000 1.000000
vn 0.000000 -1.000000 0.000000
vn 0.000000 -1.000000 0.000000
vn 0.000000 1.000000 0.000000
vn 0.000000 1.000000 0.000000
vn -1.000000 0.000000 0.000000
vn -1.000000 0.000000 0.000000
vn 1.000000 0.000000 0.000000
vn 1.000000 0.000000 0.000000
f 9//13 11//13 10//13
f 9//14 12//14 11//14
f 13//15 14//15 15//15
f 13//16 15//16 16//16
f 9//17 10//17 14//17
f 9//18 14//18 13//18
f 12//19 16//19 15//19
f 12//20 15//20 11//20
f 9//21 13//21 16//21
f 9//22 16//22 12//22
f 10//23 11//23 15//23
f 10//24 15//24 14//24
o Floor_JumpExit
g Floor_JumpExit
usemtl Field_EdgeDark
v 6.000000 -0.440000 -3.000000
v 14.000000 -0.440000 -3.000000
v 14.000000 0.000000 -3.000000
v 6.000000 0.000000 -3.000000
v 6.000000 -0.440000 3.000000
v 14.000000 -0.440000 3.000000
v 14.000000 0.000000 3.000000
v 6.000000 0.000000 3.000000
vn 0.000000 0.000000 -1.000000
vn 0.000000 0.000000 -1.000000
vn 0.000000 0.000000 1.000000
vn 0.000000 0.000000 1.000000
vn 0.000000 -1.000000 0.000000
vn 0.000000 -1.000000 0.000000
vn 0.000000 1.000000 0.000000
vn 0.000000 1.000000 0.000000
vn -1.000000 0.000000 0.000000
vn -1.000000 0.000000 0.000000
vn 1.000000 0.000000 0.000000
vn 1.000000 0.000000 0.000000
f 17//25 19//25 18//25
f 17//26 20//26 19//26
f 21//27 22//27 23//27
f 21//28 23//28 24//28
f 17//29 18//29 22//29
f 17//30 22//30 21//30
f 20//31 24//31 23//31
f 20//32 23//32 19//32
f 17//33 21//33 24//33
f 17//34 24//34 20//34
f 18//35 19//35 23//35
f 18//36 23//36 22//36
o Floor_Finish
g Floor_Finish
usemtl Field_EdgeDark
v 14.000000 -0.440000 -3.000000
v 22.000000 -0.440000 -3.000000
v 22.000000 0.000000 -3.000000
v 14.000000 0.000000 -3.000000
v 14.000000 -0.440000 3.000000
v 22.000000 -0.440000 3.000000
v 22.000000 0.000000 3.000000
v 14.000000 0.000000 3.000000
vn 0.000000 0.000000 -1.000000
vn 0.000000 0.000000 -1.000000
vn 0.000000 0.000000 1.000000
vn 0.000000 0.000000 1.000000
vn 0.000000 -1.000000 0.000000
vn 0.000000 -1.000000 0.000000
vn 0.000000 1.000000 0.000000
vn 0.000000 1.000000 0.000000
vn -1.000000 0.000000 0.000000
vn -1.000000 0.000000 0.000000
vn 1.000000 0.000000 0.000000
vn 1.000000 0.000000 0.000000
f 25//37 27//37 26//37
f 25//38 28//38 27//38
f 29//39 30//39 31//39
f 29//40 31//40 32//40
f 25//41 26//41 30//41
f 25//42 30//42 29//42
f 28//43 32//43 31//43
f 28//44 31//44 27//44
f 25//45 29//45 32//45
f 25//46 32//46 28//46
f 26//47 27//47 31//47
f 26//48 31//48 30//48
o JumpBarrier
g JumpBarrier
usemtl Field_EdgeDark
v -10.325000 0.000000 -2.550000
v -9.675000 0.000000 -2.550000
v -9.675000 0.660000 -2.550000
v -10.325000 0.660000 -2.550000
v -10.325000 0.000000 2.550000
v -9.675000 0.000000 2.550000
v -9.675000 0.660000 2.550000
v -10.325000 0.660000 2.550000
vn 0.000000 0.000000 -1.000000
vn 0.000000 0.000000 -1.000000
vn 0.000000 0.000000 1.000000
vn 0.000000 0.000000 1.000000
vn 0.000000 -1.000000 0.000000
vn 0.000000 -1.000000 0.000000
vn 0.000000 1.000000 0.000000
vn 0.000000 1.000000 0.000000
vn -1.000000 0.000000 0.000000
vn -1.000000 0.000000 0.000000
vn 1.000000 0.000000 0.000000
vn 1.000000 0.000000 0.000000
f 33//49 35//49 34//49
f 33//50 36//50 35//50
f 37//51 38//51 39//51
f 37//52 39//52 40//52
f 33//53 34//53 38//53
f 33//54 38//54 37//54
f 36//55 40//55 39//55
f 36//56 39//56 35//56
f 33//57 37//57 40//57
f 33//58 40//58 36//58
f 34//59 35//59 39//59
f 34//60 39//60 38//60
o Step_A
g Step_A
usemtl Field_EdgeDark
v -5.800000 0.000000 -2.000000
v -4.800000 0.000000 -2.000000
v -4.800000 0.360000 -2.000000
v -5.800000 0.360000 -2.000000
v -5.800000 0.000000 2.000000
v -4.800000 0.000000 2.000000
v -4.800000 0.360000 2.000000
v -5.800000 0.360000 2.000000
vn 0.000000 0.000000 -1.000000
vn 0.000000 0.000000 -1.000000
vn 0.000000 0.000000 1.000000
vn 0.000000 0.000000 1.000000
vn 0.000000 -1.000000 0.000000
vn 0.000000 -1.000000 0.000000
vn 0.000000 1.000000 0.000000
vn 0.000000 1.000000 0.000000
vn -1.000000 0.000000 0.000000
vn -1.000000 0.000000 0.000000
vn 1.000000 0.000000 0.000000
vn 1.000000 0.000000 0.000000
f 41//61 43//61 42//61
f 41//62 44//62 43//62
f 45//63 46//63 47//63
f 45//64 47//64 48//64
f 41//65 42//65 46//65
f 41//66 46//66 45//66
f 44//67 48//67 47//67
f 44//68 47//68 43//68
f 41//69 45//69 48//69
f 41//70 48//70 44//70
f 42//71 43//71 47//71
f 42//72 47//72 46//72
o Step_B
g Step_B
usemtl Field_EdgeDark
v -4.650000 0.000000 -2.000000
v -3.650000 0.000000 -2.000000
v -3.650000 0.720000 -2.000000
v -4.650000 0.720000 -2.000000
v -4.650000 0.000000 2.000000
v -3.650000 0.000000 2.000000
v -3.650000 0.720000 2.000000
v -4.650000 0.720000 2.000000
vn 0.000000 0.000000 -1.000000
vn 0.000000 0.000000 -1.000000
vn 0.000000 0.000000 1.000000
vn 0.000000 0.000000 1.000000
vn 0.000000 -1.000000 0.000000
vn 0.000000 -1.000000 0.000000
vn 0.000000 1.000000 0.000000
vn 0.000000 1.000000 0.000000
vn -1.000000 0.000000 0.000000
vn -1.000000 0.000000 0.000000
vn 1.000000 0.000000 0.000000
vn 1.000000 0.000000 0.000000
f 49//73 51//73 50//73
f 49//74 52//74 51//74
f 53//75 54//75 55//75
f 53//76 55//76 56//76
f 49//77 50//77 54//77
f 49//78 54//78 53//78
f 52//79 56//79 55//79
f 52//80 55//80 51//80
f 49//81 53//81 56//81
f 49//82 56//82 52//82
f 50//83 51//83 55//83
f 50//84 55//84 54//84
o Step_C
g Step_C
usemtl Field_EdgeDark
v -3.500000 0.000000 -2.000000
v -2.500000 0.000000 -2.000000
v -2.500000 1.080000 -2.000000
v -3.500000 1.080000 -2.000000
v -3.500000 0.000000 2.000000
v -2.500000 0.000000 2.000000
v -2.500000 1.080000 2.000000
v -3.500000 1.080000 2.000000
vn 0.000000 0.000000 -1.000000
vn 0.000000 0.000000 -1.000000
vn 0.000000 0.000000 1.000000
vn 0.000000 0.000000 1.000000
vn 0.000000 -1.000000 0.000000
vn 0.000000 -1.000000 0.000000
vn 0.000000 1.000000 0.000000
vn 0.000000 1.000000 0.000000
vn -1.000000 0.000000 0.000000
vn -1.000000 0.000000 0.000000
vn 1.000000 0.000000 0.000000
vn 1.000000 0.000000 0.000000
f 57//85 59//85 58//85
f 57//86 60//86 59//86
f 61//87 62//87 63//87
f 61//88 63//88 64//88
f 57//89 58//89 62//89
f 57//90 62//90 61//90
f 60//91 64//91 63//91
f 60//92 63//92 59//92
f 57//93 61//93 64//93
f 57//94 64//94 60//94
f 58//95 59//95 63//95
f 58//96 63//96 62//96
o RaisedTrainingDeck
g RaisedTrainingDeck
usemtl Field_EdgeDark
v -2.500000 0.870000 -2.000000
v 1.900000 0.870000 -2.000000
v 1.900000 1.170000 -2.000000
v -2.500000 1.170000 -2.000000
v -2.500000 0.870000 2.000000
v 1.900000 0.870000 2.000000
v 1.900000 1.170000 2.000000
v -2.500000 1.170000 2.000000
vn 0.000000 0.000000 -1.000000
vn 0.000000 0.000000 -1.000000
vn 0.000000 0.000000 1.000000
vn 0.000000 0.000000 1.000000
vn 0.000000 -1.000000 0.000000
vn 0.000000 -1.000000 0.000000
vn 0.000000 1.000000 0.000000
vn 0.000000 1.000000 0.000000
vn -1.000000 0.000000 0.000000
vn -1.000000 0.000000 0.000000
vn 1.000000 0.000000 0.000000
vn 1.000000 0.000000 0.000000
f 65//97 67//97 66//97
f 65//98 68//98 67//98
f 69//99 70//99 71//99
f 69//100 71//100 72//100
f 65//101 66//101 70//101
f 65//102 70//102 69//102
f 68//103 72//103 71//103
f 68//104 71//104 67//104
f 65//105 69//105 72//105
f 65//106 72//106 68//106
f 66//107 67//107 71//107
f 66//108 71//108 70//108
o TrainingRampDown
g TrainingRampDown
usemtl Field_EdgeDark
v 1.900000 0.000000 -2.000000
v 4.400000 0.000000 -2.000000
v 4.400000 0.000000 2.000000
v 1.900000 0.000000 2.000000
v 1.900000 1.180000 -2.000000
v 4.400000 0.100000 -2.000000
v 4.400000 0.100000 2.000000
v 1.900000 1.180000 2.000000
vn 0.000000 1.000000 0.000000
vn 0.000000 1.000000 0.000000
vn -0.396577 -0.918002 0.000000
vn -0.396577 -0.918002 0.000000
vn 0.000000 0.000000 1.000000
vn 0.000000 0.000000 1.000000
vn -1.000000 0.000000 0.000000
vn -1.000000 0.000000 0.000000
vn 0.000000 0.000000 -1.000000
vn 0.000000 0.000000 -1.000000
vn 1.000000 0.000000 0.000000
vn 1.000000 0.000000 0.000000
f 73//109 75//109 74//109
f 73//110 76//110 75//110
f 77//111 78//111 79//111
f 77//112 79//112 80//112
f 73//113 74//113 78//113
f 73//114 78//114 77//114
f 74//115 75//115 79//115
f 74//116 79//116 78//116
f 75//117 76//117 80//117
f 75//118 80//118 79//118
f 76//119 73//119 77//119
f 76//120 77//120 80//120
o HazardTrenchBase
g HazardTrenchBase
usemtl Field_EdgeDark
v 5.000000 -1.230000 -3.000000
v 6.000000 -1.230000 -3.000000
v 6.000000 -1.070000 -3.000000
v 5.000000 -1.070000 -3.000000
v 5.000000 -1.230000 3.000000
v 6.000000 -1.230000 3.000000
v 6.000000 -1.070000 3.000000
v 5.000000 -1.070000 3.000000
vn 0.000000 0.000000 -1.000000
vn 0.000000 0.000000 -1.000000
vn 0.000000 0.000000 1.000000
vn 0.000000 0.000000 1.000000
vn 0.000000 -1.000000 0.000000
vn 0.000000 -1.000000 0.000000
vn 0.000000 1.000000 0.000000
vn 0.000000 1.000000 0.000000
vn -1.000000 0.000000 0.000000
vn -1.000000 0.000000 0.000000
vn 1.000000 0.000000 0.000000
vn 1.000000 0.000000 0.000000
f 81//121 83//121 82//121
f 81//122 84//122 83//122
f 85//123 86//123 87//123
f 85//124 87//124 88//124
f 81//125 82//125 86//125
f 81//126 86//126 85//126
f 84//127 88//127 87//127
f 84//128 87//128 83//128
f 81//129 85//129 88//129
f 81//130 88//130 84//130
f 82//131 83//131 87//131
f 82//132 87//132 86//132
o LandingBlock
g LandingBlock
usemtl Field_EdgeDark
v 6.300000 0.000000 -2.200000
v 8.100000 0.000000 -2.200000
v 8.100000 0.760000 -2.200000
v 6.300000 0.760000 -2.200000
v 6.300000 0.000000 2.200000
v 8.100000 0.000000 2.200000
v 8.100000 0.760000 2.200000
v 6.300000 0.760000 2.200000
vn 0.000000 0.000000 -1.000000
vn 0.000000 0.000000 -1.000000
vn 0.000000 0.000000 1.000000
vn 0.000000 0.000000 1.000000
vn 0.000000 -1.000000 0.000000
vn 0.000000 -1.000000 0.000000
vn 0.000000 1.000000 0.000000
vn 0.000000 1.000000 0.000000
vn -1.000000 0.000000 0.000000
vn -1.000000 0.000000 0.000000
vn 1.000000 0.000000 0.000000
vn 1.000000 0.000000 0.000000
f 89//133 91//133 90//133
f 89//134 92//134 91//134
f 93//135 94//135 95//135
f 93//136 95//136 96//136
f 89//137 90//137 94//137
f 89//138 94//138 93//138
f 92//139 96//139 95//139
f 92//140 95//140 91//140
f 89//141 93//141 96//141
f 89//142 96//142 92//142
f 90//143 91//143 95//143
f 90//144 95//144 94//144
o HighPlatform
g HighPlatform
usemtl Field_EdgeDark
v 8.100000 0.910000 -2.200000
v 12.700000 0.910000 -2.200000
v 12.700000 1.190000 -2.200000
v 8.100000 1.190000 -2.200000
v 8.100000 0.910000 2.200000
v 12.700000 0.910000 2.200000
v 12.700000 1.190000 2.200000
v 8.100000 1.190000 2.200000
vn 0.000000 0.000000 -1.000000
vn 0.000000 0.000000 -1.000000
vn 0.000000 0.000000 1.000000
vn 0.000000 0.000000 1.000000
vn 0.000000 -1.000000 0.000000
vn 0.000000 -1.000000 0.000000
vn 0.000000 1.000000 0.000000
vn 0.000000 1.000000 0.000000
vn -1.000000 0.000000 0.000000
vn -1.000000 0.000000 0.000000
vn 1.000000 0.000000 0.000000
vn 1.000000 0.000000 0.000000
f 97//145 99//145 98//145
f 97//146 100//146 99//146
f 101//147 102//147 103//147
f 101//148 103//148 104//148
f 97//149 98//149 102//149
f 97//150 102//150 101//150
f 100//151 104//151 103//151
f 100//152 103//152 99//152
f 97//153 101//153 104//153
f 97//154 104//154 100//154
f 98//155 99//155 103//155
f 98//156 103//156 102//156
o HighPlatformRamp
g HighPlatformRamp
usemtl Field_EdgeDark
v 12.700000 0.000000 -2.200000
v 15.000000 0.000000 -2.200000
v 15.000000 0.000000 2.200000
v 12.700000 0.000000 2.200000
v 12.700000 1.180000 -2.200000
v 15.000000 0.100000 -2.200000
v 15.000000 0.100000 2.200000
v 12.700000 1.180000 2.200000
vn 0.000000 1.000000 0.000000
vn 0.000000 1.000000 0.000000
vn -0.425039 -0.905175 0.000000
vn -0.425039 -0.905175 0.000000
vn 0.000000 0.000000 1.000000
vn 0.000000 0.000000 1.000000
vn -1.000000 0.000000 0.000000
vn -1.000000 0.000000 0.000000
vn 0.000000 0.000000 -1.000000
vn 0.000000 0.000000 -1.000000
vn 1.000000 0.000000 0.000000
vn 1.000000 0.000000 0.000000
f 105//157 107//157 106//157
f 105//158 108//158 107//158
f 109//159 110//159 111//159
f 109//160 111//160 112//160
f 105//161 106//161 110//161
f 105//162 110//162 109//162
f 106//163 107//163 111//163
f 106//164 111//164 110//164
f 107//165 108//165 112//165
f 107//166 112//166 111//166
f 108//167 105//167 109//167
f 108//168 109//168 112//168
